<svg id="Layer_1" data-name="Layer 1" xmlns="http://www.w3.org/2000/svg" viewBox="0 0 398.15 229.1"><defs><style>.cls-1,.cls-13{fill:#4b3e8b;}.cls-2,.cls-5{fill:#fff;}.cls-3{fill:#b07eff;}.cls-4{fill:#d2bbff;}.cls-11,.cls-13,.cls-4,.cls-5,.cls-6,.cls-8,.cls-9{fill-rule:evenodd;}.cls-12,.cls-6{fill:#70c9eb;}.cls-7{fill:#a1c3ff;}.cls-8{fill:#64a1f4;}.cls-9{fill:#458de8;}.cls-10{fill:#7191ff;}.cls-11{fill:#53c3ff;}</style></defs><path class="cls-1" d="M96.53,94.23C78.9,99.92,58.48,108.78,55.21,127c-2.12,11.88,4.78,24.31,15.17,30.45,5.07,3,11.3,5.11,14,10.37C88.45,176,81,185.37,73.22,190.12s-17.36,8.52-20.93,17c-2.34,5.55-1.42,12,.9,17.6,8.52,20.41,33.37,29.36,55.47,28.26s43.06-9.7,64.73-14.13c74.44-15.22,152.49,19.33,226.8,3.49,11.56-2.46,23.21-6.31,32.14-14.06C442.4,219.51,448.12,206.33,449,193c.82-12.69-3.68-27-15-32.69-6.64-3.34-14.57-3.2-21.77-1.39-4.6,1.16-9.12,3-13.87,3s-10-2.34-11.34-6.88c-1.44-4.78,1.85-9.71,5.63-13,7.68-6.62,18-9.93,24.94-17.3a29.47,29.47,0,0,0-11.53-48c-23.46-8.33-49,14.37-73,7.72-1.78-.5-3.65-1.26-4.59-2.85a6.68,6.68,0,0,1-.18-5.25c2.94-9.66,14.35-15.8,14.85-25.88.27-5.49-3-10.61-7.05-14.28C308,11.06,267.33,41,238.71,50.47,191.66,66,143.7,79,96.53,94.23Z" transform="translate(-50.93 -26.4)"/><path class="cls-2" d="M207.07,168.65h0l6.76-4h0s-.74-2-1.24-3.06-1-2.06-1.58-3a61,61,0,0,0-3.89-5.3h0l-6.75,4h0l-8.88-15h0s-2.38,1.09-3.57,1.67-2.34,1.19-3.47,1.86-2.07,1.29-3,2-2.9,2.16-2.9,2.16h0l8.88,15s0,0,0,0l-13.43,7.94h0l-3.86-50.74h0a40.14,40.14,0,0,0-7.4.25,66.78,66.78,0,0,0-6.95,2.28h0l5.18,69.5v0l1.61.81h0l31.59-18.67h0l7.77,13.15h0s2.38-1.1,3.57-1.67,2.34-1.2,3.47-1.86,2.07-1.29,3-2,2.9-2.16,2.9-2.16h0Z" transform="translate(-50.93 -26.4)"/><path class="cls-2" d="M342.29,162.88c-1.06-.78-2.15-1.51-3.26-2.2s-2.11-1.23-3.16-1.75-3.26-1.56-3.26-1.56h0l-9.14,14.87h0l-13.29-8.17s0,0,0,0L353.21,137s0,0,0,0a40.25,40.25,0,0,0-3.67-6.42,68.61,68.61,0,0,0-5.26-5.09h0l-59,37.05s0,0,0,0l0,1.8h0l31.26,19.21h0l-8,13s0,0,0,0,2.08,1.6,3.14,2.38,2.15,1.51,3.27,2.2,2.1,1.23,3.15,1.75l3.27,1.56h0l8-13a0,0,0,0,1,0,0l6.69,4.11h0s1.43-1.59,2.13-2.53,1.34-1.87,1.91-2.8a60.19,60.19,0,0,0,2.87-5.92h0l-6.69-4.11h0l9.14-14.88h0S343.35,163.66,342.29,162.88Z" transform="translate(-50.93 -26.4)"/><circle class="cls-3" cx="250" cy="153" r="34.47" transform="translate(-85.89 195.19) rotate(-45)"/><path class="cls-4" d="M215.81,148.71c10.22,1.45,27.41-5.85,32.92-6.92,11.21-2.17,22.71.41,34.13.79a34.16,34.16,0,0,0-3.17-7.08c-4.19.17-8.62-.56-12.86-.68-8-.23-16,1.88-24.07,1.39-3.71-.22-12.07-3.47-19.66-4.75A34.23,34.23,0,0,0,215.81,148.71Z" transform="translate(-50.93 -26.4)"/><path class="cls-4" d="M250,118.53a34.56,34.56,0,0,0-10.07,1.5c4.32,2.46,13,3.35,15,3.62,3.61.48,7.53.65,10.63-1.26l.13-.09A34.42,34.42,0,0,0,250,118.53Z" transform="translate(-50.93 -26.4)"/><path class="cls-4" d="M284.46,153.48A66.83,66.83,0,0,0,254,153c-5.44,1.19-10.7,3.06-16.11,4.39a83.71,83.71,0,0,1-20.79,2.43l-.9,0a34.37,34.37,0,0,0,9.6,17.79,118.72,118.72,0,0,0,23.6-11.43c6.48-4.08,13-9,20.59-9.64,4.74-.44,9.39.8,14.08,1.77A35.67,35.67,0,0,0,284.46,153.48Z" transform="translate(-50.93 -26.4)"/><path class="cls-4" d="M282.63,164.1c-4.67-.69-13,3.42-15.08,5.15-1.82,1.55-3.36,3.44-5.34,4.8-2.5,1.72-5.52,2.47-8.47,3.23q-8.9,2.29-17.67,5.1a3.09,3.09,0,0,0-1.91,1.23,34.44,34.44,0,0,0,27.24,1.92c3.58-5.11,5.72-11.72,11.38-14.13,1-.4,4.32-.88,7.35-1.67A33.83,33.83,0,0,0,282.63,164.1Z" transform="translate(-50.93 -26.4)"/><path class="cls-5" d="M352.93,255.5a98.76,98.76,0,0,0-194.12,0Z" transform="translate(-50.93 -26.4)"/><path class="cls-6" d="M274,231.55c-.46,3.46-5.82,5.61-12,4.8s-10.77-4.28-10.32-7.74,5.82-5.6,12-4.79S274.42,228.09,274,231.55Z" transform="translate(-50.93 -26.4)"/><circle class="cls-7" cx="132.92" cy="67.85" r="12.75"/><path class="cls-8" d="M183.84,81.5a12.74,12.74,0,0,0-6.23,1.63,1.9,1.9,0,0,0,.31.42c1.29,1.3,4.36,1.36,6.07,1.44a20.74,20.74,0,0,0,7.42-1A12.73,12.73,0,0,0,183.84,81.5Z" transform="translate(-50.93 -26.4)"/><path class="cls-8" d="M193.59,88.32a6.71,6.71,0,0,0,1.23-.53,12.6,12.6,0,0,0-1.1-1.6l-3.81,1.71a19.5,19.5,0,0,1-3,1.16,17.93,17.93,0,0,1-4.74.42,96.77,96.77,0,0,1-9.8-.7,12.5,12.5,0,0,0-1,8.17,12.49,12.49,0,0,0,1.87-1.09,25.18,25.18,0,0,1,5.29-2.31Z" transform="translate(-50.93 -26.4)"/><path class="cls-8" d="M195.56,89.22c-1,.89-1.72,2.06-2.8,2.9A14.83,14.83,0,0,1,189,94.25c-.95.37-1.93.65-2.84,1.11-.33.17-.69.4-.77.77-.15.65.62,1.12,1.27,1.27a14.56,14.56,0,0,0,4,.19l4.71-.2c.28,0,.56,0,.84-.07a12.48,12.48,0,0,0,.39-3.07A12.78,12.78,0,0,0,195.56,89.22Z" transform="translate(-50.93 -26.4)"/><path class="cls-8" d="M184.18,93.9a29.9,29.9,0,0,0-6.59,2.15,33.73,33.73,0,0,1-4.23,1.86,7.94,7.94,0,0,1-1.67.2,12.9,12.9,0,0,0,4.05,6l.38-.48c1.91-2.53,3.21-5.73,6-7.3a10,10,0,0,0,1.48-.89A1.65,1.65,0,0,0,184.18,93.9Z" transform="translate(-50.93 -26.4)"/><path class="cls-8" d="M195.36,99.7a2.1,2.1,0,0,0-.43,0l-8.16.45a7.08,7.08,0,0,0-7.37,4.16c-.24.38-.66.9-1.05,1.45a12.76,12.76,0,0,0,5.16,1.24c.34-.42.64-.87,1-1.29a11.24,11.24,0,0,1,7.67-4.34c.8-.09,1.6-.09,2.4-.17A16.39,16.39,0,0,0,195.36,99.7Z" transform="translate(-50.93 -26.4)"/><path class="cls-9" d="M195.54,99.31a11.92,11.92,0,0,0,.76-2.37,80,80,0,0,1-11.3,3,78.62,78.62,0,0,1-11.73,1.43,12.84,12.84,0,0,0,1.6,1.92,82.51,82.51,0,0,0,10.51-1.39A85.29,85.29,0,0,0,195.54,99.31Z" transform="translate(-50.93 -26.4)"/><path class="cls-2" d="M171.34,102.41c-4.57,0-8.3-.73-8.72-2.92s2.3-4.22,8-6.39a1,1,0,0,1,1.29.58,1,1,0,0,1-.58,1.29c-5.81,2.2-6.84,3.84-6.78,4.13.21,1.1,7.41,2.37,20.42-.15a71.07,71.07,0,0,0,14.16-4.13c4.2-1.84,4.89-3.11,4.84-3.35s-1.7-1.48-8.24-1.29a1,1,0,0,1-1-1,1,1,0,0,1,1-1c6.4-.2,9.85.79,10.27,2.91.35,1.82-1.62,3.64-6,5.56a72.41,72.41,0,0,1-14.58,4.26A80,80,0,0,1,171.34,102.41Z" transform="translate(-50.93 -26.4)"/><circle class="cls-10" cx="381.15" cy="118" r="10.27" transform="translate(-66.37 47.82) rotate(-10.9)"/><path class="cls-11" d="M386,109a10.19,10.19,0,0,0-5.05-1.23,1.84,1.84,0,0,0,.06.41c.42,1.42,2.57,2.63,3.75,3.35a16.8,16.8,0,0,0,5.64,2.14A10.22,10.22,0,0,0,386,109Z" transform="translate(-50.93 -26.4)"/><path class="cls-11" d="M390.33,117.54a5.54,5.54,0,0,0,1.07.1,11.45,11.45,0,0,0-.16-1.56l-3.36-.25a16.11,16.11,0,0,1-2.59-.34,14.26,14.26,0,0,1-3.52-1.52,76.94,76.94,0,0,1-6.67-4.26,10.22,10.22,0,0,0-3,3.4,10.08,10.08,0,0,0-.83,2,9.35,9.35,0,0,0,1.75-.06,20.71,20.71,0,0,1,4.63.4Z" transform="translate(-50.93 -26.4)"/><path class="cls-11" d="M391.38,118.93c-1,.25-2,.8-3.1,1a12.16,12.16,0,0,1-3.46.08c-.81-.1-1.62-.28-2.43-.3a1,1,0,0,0-.85.25c-.35.4,0,1,.41,1.39a12.25,12.25,0,0,0,2.74,1.65l3.41,1.66c.2.1.41.19.63.28a10.66,10.66,0,0,0,1.45-2A10.49,10.49,0,0,0,391.38,118.93Z" transform="translate(-50.93 -26.4)"/><path class="cls-11" d="M381.52,117.88a24.36,24.36,0,0,0-5.49-1,27,27,0,0,1-3.71-.31,5.93,5.93,0,0,1-1.26-.49,10.28,10.28,0,0,0,.57,5.79l.46-.19c2.32-1.07,4.46-2.83,7-2.89a6.42,6.42,0,0,0,1.39-.07A1.3,1.3,0,0,0,381.52,117.88Z" transform="translate(-50.93 -26.4)"/><path class="cls-11" d="M387.22,126.27l-.3-.17-6-2.81a7.58,7.58,0,0,0-3.9-1,7.48,7.48,0,0,0-2.91,1.16c-.31.18-.81.38-1.3.63a10.17,10.17,0,0,0,3.18,2.85c.4-.17.78-.37,1.18-.55a9,9,0,0,1,7.09-.13c.6.25,1.17.55,1.77.8A10.71,10.71,0,0,0,387.22,126.27Z" transform="translate(-50.93 -26.4)"/><path class="cls-2" d="M160.05,220.5h20.13a3.94,3.94,0,0,1,3.94,3.94v4.06a0,0,0,0,1,0,0h-28a0,0,0,0,1,0,0v-4.06A3.94,3.94,0,0,1,160.05,220.5Z" transform="translate(-158.74 243.9) rotate(-62.2)"/><path class="cls-2" d="M337.05,223h13.13a3.94,3.94,0,0,1,3.94,3.94V231a0,0,0,0,1,0,0h-21a0,0,0,0,1,0,0v-4.06a3.94,3.94,0,0,1,3.94-3.94Z" transform="translate(376.06 -202.7) rotate(68.23)"/><path class="cls-2" d="M199.05,184.5h20.13a3.94,3.94,0,0,1,3.94,3.94v4.06a0,0,0,0,1,0,0h-28a0,0,0,0,1,0,0v-4.06A3.94,3.94,0,0,1,199.05,184.5Z" transform="translate(-121.62 130.96) rotate(-35.68)"/><path class="cls-2" d="M307.05,195h20.13a3.94,3.94,0,0,1,3.94,3.94V203a0,0,0,0,1,0,0h-28a0,0,0,0,1,0,0v-4.06A3.94,3.94,0,0,1,307.05,195Z" transform="translate(133.24 -177.38) rotate(37.09)"/><ellipse class="cls-12" cx="209.87" cy="207.5" rx="15.75" ry="7" transform="translate(-122.12 91.08) rotate(-26.92)"/><path class="cls-13" d="M207.7,204.26c7-3.56,14-4.22,16.52-1.77a3.59,3.59,0,0,0-.31-2.12c-1.75-3.45-9.46-3.05-17.21.89s-12.63,9.92-10.88,13.37a3.24,3.24,0,0,0,.69.88C197,212.06,201.36,207.48,207.7,204.26Z" transform="translate(-50.93 -26.4)"/><path class="cls-6" d="M318.77,212.24c-1.37,2.2-6.5,1.47-11.45-1.62s-7.85-7.39-6.48-9.59,6.51-1.48,11.46,1.62S320.15,210,318.77,212.24Z" transform="translate(-50.93 -26.4)"/><path class="cls-13" d="M310.92,204.26c4.47,2.8,7.26,6.57,6.74,8.89a2.4,2.4,0,0,0,1.11-.91c1.38-2.2-1.52-6.5-6.47-9.59s-10.08-3.82-11.46-1.62a2.37,2.37,0,0,0-.27.7C302.71,200.79,306.87,201.73,310.92,204.26Z" transform="translate(-50.93 -26.4)"/><path class="cls-13" d="M263.64,223.82c-6.16-.81-11.52,1.33-12,4.79a3.87,3.87,0,0,0,0,.76c1.33-2.8,6.17-4.41,11.63-3.69,5.71.75,10.1,3.79,10.34,7a3.58,3.58,0,0,0,.34-1.11C274.42,228.09,269.79,224.63,263.64,223.82Z" transform="translate(-50.93 -26.4)"/><circle class="cls-12" cx="59.69" cy="112.02" r="3.25"/><path class="cls-6" d="M299.49,49.42A1.46,1.46,0,1,1,301,48,1.46,1.46,0,0,1,299.49,49.42Z" transform="translate(-50.93 -26.4)"/><circle class="cls-12" cx="269.23" cy="48.6" r="1.46"/><circle class="cls-12" cx="25.69" cy="96.06" r="1.46"/><path class="cls-5" d="M285.12,100.63a1.88,1.88,0,1,1-1.88-1.88A1.88,1.88,0,0,1,285.12,100.63Z" transform="translate(-50.93 -26.4)"/><path class="cls-5" d="M364,186.88a1.88,1.88,0,1,1-1.87-1.88A1.87,1.87,0,0,1,364,186.88Z" transform="translate(-50.93 -26.4)"/><path class="cls-5" d="M419.37,190a1.88,1.88,0,1,1-1.88-1.88A1.88,1.88,0,0,1,419.37,190Z" transform="translate(-50.93 -26.4)"/><path class="cls-5" d="M124,217.38a1.88,1.88,0,1,1-1.87-1.88A1.87,1.87,0,0,1,124,217.38Z" transform="translate(-50.93 -26.4)"/><path class="cls-5" d="M232.37,81.5a1.88,1.88,0,1,1-1.88-1.88A1.88,1.88,0,0,1,232.37,81.5Z" transform="translate(-50.93 -26.4)"/><polygon class="cls-5" points="158.68 100.72 161.19 102.14 158.63 103.48 157.2 105.98 155.87 103.43 153.36 102 155.92 100.66 157.35 98.16 158.68 100.72"/><polygon class="cls-5" points="276.56 74.38 278.19 75.31 276.52 76.19 275.59 77.82 274.72 76.15 273.09 75.22 274.75 74.35 275.69 72.71 276.56 74.38"/><polygon class="cls-5" points="83.72 152.8 85.36 153.73 83.69 154.6 82.75 156.24 81.88 154.57 80.25 153.63 81.92 152.76 82.85 151.13 83.72 152.8"/><polygon class="cls-5" points="84.66 86.16 86.29 87.1 84.62 87.97 83.69 89.6 82.82 87.94 81.18 87 82.85 86.13 83.78 84.5 84.66 86.16"/><polygon class="cls-5" points="34.69 185.6 36.32 186.53 34.66 187.41 33.72 189.04 32.85 187.37 31.22 186.44 32.88 185.57 33.82 183.93 34.69 185.6"/><polygon class="cls-5" points="331.53 139.5 333.16 140.43 331.49 141.3 330.56 142.94 329.69 141.27 328.06 140.33 329.72 139.46 330.66 137.83 331.53 139.5"/><polygon class="cls-5" points="351.69 205.27 353.32 206.2 351.65 207.07 350.72 208.71 349.85 207.04 348.22 206.11 349.88 205.23 350.82 203.6 351.69 205.27"/></svg>